<?xml version="1.0" standalone="no"?>
<!DOCTYPE svg PUBLIC "-//W3C//DTD SVG 20010904//EN"
 "http://www.w3.org/TR/2001/REC-SVG-20010904/DTD/svg10.dtd">
<svg version="1.0" xmlns="http://www.w3.org/2000/svg"
 width="52.000000pt" height="52.000000pt" viewBox="0 0 52.000000 52.000000"
 preserveAspectRatio="xMidYMid meet">

<g transform="translate(0.000000,52.000000) scale(0.100000,-0.100000)"
fill="#000000" stroke="none">
<path d="M193 510 c-38 -15 -57 -58 -60 -132 -3 -59 1 -76 22 -112 14 -23 25
-45 25 -49 0 -3 -24 -17 -54 -30 -63 -29 -89 -62 -84 -108 2 -25 11 -38 38
-54 30 -17 52 -20 160 -20 108 0 132 3 173 22 42 20 47 25 47 55 0 47 -24 77
-87 104 l-54 24 25 46 c20 36 26 60 26 110 0 88 -11 111 -66 134 -49 21 -76
24 -111 10z m80 -42 c12 -6 29 -14 37 -18 10 -5 16 -26 18 -70 3 -53 -1 -72
-22 -111 -15 -26 -26 -53 -26 -61 0 -20 29 -44 61 -51 36 -9 79 -45 79 -66 0
-28 -47 -43 -150 -48 -197 -10 -251 43 -114 112 70 36 77 55 40 121 -34 60
-36 139 -5 178 22 28 47 33 82 14z"/>
</g>
</svg>
